<svg xmlns:dc="http://purl.org/dc/elements/1.1/" xmlns:cc="http://creativecommons.org/ns#" xmlns:rdf="http://www.w3.org/1999/02/22-rdf-syntax-ns#" xmlns:svg="http://www.w3.org/2000/svg" xmlns="http://www.w3.org/2000/svg" xmlns:xlink="http://www.w3.org/1999/xlink" id="svg79516" viewBox="0 0 1024 768" height="768px" width="1024px" version="1.1">
  <metadata id="metadata79522">
    <rdf:rdf>
      <cc:work rdf:about="">
        <dc:format>image/svg+xml</dc:format>
        <dc:type rdf:resource="http://purl.org/dc/dcmitype/StillImage"></dc:type>
      </cc:work>
    </rdf:rdf>
  </metadata>
  <defs id="defs79520"></defs>
  <linearGradient spreadMethod="pad" y2="30%" x2="-10%" y1="120%" x1="30%" id="3d_gradient2-logo-757cffd6-5306-4aad-b70b-43734b6bce1d">
    <stop id="stop79497" stop-opacity="1" stop-color="#ffffff" offset="0%"></stop>
    <stop id="stop79499" stop-opacity="1" stop-color="#000000" offset="100%"></stop>
  </linearGradient>
  <linearGradient gradientTransform="rotate(-30)" spreadMethod="pad" y2="30%" x2="-10%" y1="120%" x1="30%" id="3d_gradient3-logo-757cffd6-5306-4aad-b70b-43734b6bce1d">
    <stop id="stop79502" stop-opacity="1" stop-color="#ffffff" offset="0%"></stop>
    <stop id="stop79504" stop-opacity="1" stop-color="#cccccc" offset="50%"></stop>
    <stop id="stop79506" stop-opacity="1" stop-color="#000000" offset="100%"></stop>
  </linearGradient>
  <g id="logo-group">
    <image xlink:href="" id="container" x="272" y="144" width="480" height="480" style="display: none;" transform="translate(0 0)"></image>
    <g id="logo-center" transform="translate(0 0)">
      <image xlink:href="" id="icon_container" style="display: none;" x="0" y="0"></image>
      <g id="slogan" style="font-style:normal;font-weight:200;font-size:32px;line-height:1;font-family:'Work Sans';font-variant-ligatures:none;text-align:center;text-anchor:middle" transform="translate(0 0)"></g>
      <g id="title" style="font-style:normal;font-weight:400;font-size:72px;line-height:1;font-family:'Brandmark Dots 1 Color';font-variant-ligatures:normal;text-align:center;text-anchor:middle" transform="translate(0 0)">
        <path id="path79525" style="font-style:normal;font-weight:400;font-size:72px;line-height:1;font-family:'Brandmark Dots 1 Color';font-variant-ligatures:normal;text-align:center;text-anchor:middle" d="m 414.75275,-33.048 c 0,-8.352 -4.896,-17.352 -15.696,-17.352 h -18.216 c -2.592,0 -4.752,2.16 -4.752,4.752 v 40.896 c 0,2.592 2.16,4.752 4.752,4.752 2.664,0 4.824,-2.16 4.824,-4.752 v -36.072 h 13.392 c 5.76,0 6.192,5.904 6.192,7.776 0,1.512 -0.576,3.168 -1.44,4.608 -1.368,2.232 -0.72,5.184 1.584,6.552 2.232,1.44 5.184,0.72 6.552,-1.512 1.8,-2.952 2.808,-6.408 2.808,-9.648 z m -14.832,12.384 c 0,-2.592 -2.088,-4.752 -4.752,-4.752 -2.592,0 -4.752,2.16 -4.752,4.752 0,2.664 2.16,4.824 4.752,4.824 2.664,0 4.752,-2.16 4.752,-4.824 z" stroke-width="0" stroke-linejoin="miter" stroke-miterlimit="2" fill="#064690" stroke="#064690" transform="translate(0 324.38800000000003) translate(241.81090875000007 17.528000000000006) scale(1.67) translate(-376.08875 50.4)"></path>
        <path id="path79527" style="font-style:normal;font-weight:400;font-size:72px;line-height:1;font-family:'Brandmark Dots 1 Color';font-variant-ligatures:normal;text-align:center;text-anchor:middle" d="m 416.01612,-0.432 c 2.37601,1.08 5.18401,0.072 6.336,-2.304 l 4.536,-9.504 h 24.192 c 1.65601,0 3.09601,-0.864 3.96,-2.16 1.656,-2.448 0.36,-4.536 -0.432,-6.192 l -12.816,-27.072 c -0.79199,-1.656 -2.51999,-2.736 -4.32,-2.736 -1.872,0 -3.528,1.08 -4.32,2.736 L 413.71213,-6.84 c -1.08001,2.376 -0.072,5.256 2.30399,6.408 z m 21.456,-34.128 6.768,14.112 h -13.464 z m 19.368,24.984 c -2.59199,0 -4.752,2.16 -4.752,4.824 0,2.592 2.16001,4.752 4.752,4.752 2.664,0 4.82401,-2.16 4.82401,-4.752 0,-2.664 -2.16001,-4.824 -4.82401,-4.824 z" stroke-width="0" stroke-linejoin="miter" stroke-miterlimit="2" fill="#38548f" stroke="#38548f" transform="translate(0 324.38800000000003) translate(320.61994555000007 17.528000000000006) scale(1.67) translate(-413.27979 50.4)"></path>
        <path id="path79529" style="font-style:normal;font-weight:400;font-size:72px;line-height:1;font-family:'Brandmark Dots 1 Color';font-variant-ligatures:normal;text-align:center;text-anchor:middle" d="m 507.10962,-34.344 c 0,-9.792 -6.69599,-16.056 -16.992,-16.056 h -15.47999 c -2.59201,0 -4.75201,2.16 -4.75201,4.752 v 40.896 c 0,2.592 2.16,4.752 4.75201,4.752 2.66399,0 4.824,-2.16 4.824,-4.752 v -12.96 h 10.44 l 2.15999,3.456 c 1.368,2.232 4.32,2.88 6.55201,1.44 4.39199,-2.808 0.86399,-7.416 0.86399,-7.416 4.968,-2.808 7.632,-7.92 7.632,-14.112 z m -17.20799,8.352 h -10.44 v -15.12 h 10.65599 c 4.968,0 7.41601,2.952 7.41601,7.344 0,4.032 -1.94401,7.776 -7.632,7.776 z m 18.71999,21.168 c 0,-2.664 -2.08799,-4.824 -4.752,-4.824 -2.592,0 -4.752,2.16 -4.752,4.824 0,2.592 2.16,4.752 4.752,4.752 2.66401,0 4.752,-2.16 4.752,-4.752 z" stroke-width="0" stroke-linejoin="miter" stroke-miterlimit="2" fill="#69628f" stroke="#69628f" transform="translate(0 324.38800000000003) translate(431.8516816500001 17.528000000000006) scale(1.67) translate(-469.88562 50.4)"></path>
        <path id="path79531" style="font-style:normal;font-weight:400;font-size:72px;line-height:1;font-family:'Brandmark Dots 1 Color';font-variant-ligatures:normal;text-align:center;text-anchor:middle" d="m 554.74437,-13.248 c 0,-8.856 -8.13599,-12.744 -17.35199,-16.272 -7.48801,-2.88 -10.00801,-4.824 -10.00801,-7.128 0,-3.528 3.384,-6.048 8.208,-6.048 5.54401,0 8.56801,3.024 9.864,4.176 1.80001,1.584 4.39201,1.8 6.12,-0.36 1.29601,-1.656 1.51201,-3.96 0.216,-5.688 -1.87199,-2.664 -7.48799,-7.128 -15.912,-7.128 -7.41599,0 -11.664,2.736 -13.968,5.04 -2.664,2.736 -4.104,6.264 -4.104,10.008 0.072,9.864 10.008,12.816 16.63201,15.192 7.34399,2.664 10.72799,4.608 10.72799,7.632 0,2.52 -1.51199,4.32 -3.528,5.256 -2.592,1.224 -5.256,0.36 -7.704,0.216 -2.37599,-0.144 -4.392,1.512 -4.392,4.536 0,3.672 5.04001,5.112 8.78401,5.112 11.448,0 16.41599,-7.416 16.41599,-14.544 z m -33.048,-1.656 c -2.592,0 -4.75199,2.088 -4.75199,4.752 0,2.664 2.15999,4.752 4.75199,4.752 2.664,0 4.824,-2.088 4.824,-4.752 0,-2.664 -2.16,-4.752 -4.824,-4.752 z" stroke-width="0" stroke-linejoin="miter" stroke-miterlimit="2" fill="#9b718e" stroke="#9b718e" transform="translate(0 324.38800000000003) translate(527.1398108500001 15.363680000000002) scale(1.67) translate(-516.94438 51.696)"></path>
        <path id="path79533" style="font-style:normal;font-weight:400;font-size:72px;line-height:1;font-family:'Brandmark Dots 1 Color';font-variant-ligatures:normal;text-align:center;text-anchor:middle" d="m 595.44575,0 c 2.664,0 4.752,-2.16 4.752,-4.752 0,-2.664 -2.088,-4.824 -4.752,-4.824 h -19.656 v -11.088 h 16.704 c 2.664,0 4.752,-1.944 4.752,-4.536 0,-2.664 -2.088,-4.608 -4.752,-4.608 h -16.704 v -11.016 h 5.112 c 2.592,0 4.752,-2.16 4.752,-4.824 0,-2.592 -2.16,-4.752 -4.752,-4.752 h -9.936 c -2.592,0 -4.752,2.16 -4.752,4.752 v 40.896 c 0,2.592 2.16,4.752 4.752,4.752 z m 4.536,-45.648 c 0,-2.592 -2.16,-4.752 -4.752,-4.752 -2.664,0 -4.824,2.16 -4.824,4.752 0,2.664 2.16,4.824 4.824,4.824 2.592,0 4.752,-2.16 4.752,-4.824 z" stroke-width="0" stroke-linejoin="miter" stroke-miterlimit="2" fill="#cc7f8e" stroke="#cc7f8e" transform="translate(0 324.38800000000003) translate(626.1196587500001 17.528000000000006) scale(1.67) translate(-566.21375 50.4)"></path>
        <path id="path79535" style="font-style:normal;font-weight:400;font-size:72px;line-height:1;font-family:'Brandmark Dots 1 Color';font-variant-ligatures:normal;text-align:center;text-anchor:middle" d="m 648.1565,-34.344 c 0,-9.792 -6.696,-16.056 -16.992,-16.056 h -15.48 c -2.592,0 -4.752,2.16 -4.752,4.752 v 40.896 c 0,2.592 2.16,4.752 4.752,4.752 2.664,0 4.824,-2.16 4.824,-4.752 v -12.96 h 10.44 l 2.16,3.456 c 1.368,2.232 4.32,2.88 6.552,1.44 4.392,-2.808 0.864,-7.416 0.864,-7.416 4.968,-2.808 7.632,-7.92 7.632,-14.112 z m -17.208,8.352 h -10.44 v -15.12 h 10.656 c 4.968,0 7.416,2.952 7.416,7.344 0,4.032 -1.944,7.776 -7.632,7.776 z m 18.72,21.168 c 0,-2.664 -2.088,-4.824 -4.752,-4.824 -2.592,0 -4.752,2.16 -4.752,4.824 0,2.592 2.16,4.752 4.752,4.752 2.664,0 4.752,-2.16 4.752,-4.752 z" stroke-width="0" stroke-linejoin="miter" stroke-miterlimit="2" fill="#fe8d8d" stroke="#fe8d8d" transform="translate(0 324.38800000000003) translate(717.49997125 17.528000000000006) scale(1.67) translate(-610.9325 50.4)"></path>
      </g>
      <image xlink:href="" id="icon" style="display: none;" x="0" y="0"></image>
    </g>
  </g>
</svg>